<svg xmlns="http://www.w3.org/2000/svg" viewBox="0 0 372.36 95.07"><defs><style>.cls-1{fill:#33393f;}.cls-2{fill:#34c38f;}.cls-3{fill:#364174;}</style></defs><g id="Layer_2" data-name="Layer 2"><g id="Layer_1-2" data-name="Layer 1"><path class="cls-1" d="M147.56,65.06a24.86,24.86,0,0,1-9.79,1.7c-9.68,0-15.91-6-15.91-15.71,0-7.81,3.34-14.41,8.78-18.42a22.35,22.35,0,0,1,13.88-4.42c4.11,0,7.12,1,8.15,1.66l-1.86,5.24a16.14,16.14,0,0,0-7-1.35,14.5,14.5,0,0,0-9.53,3.48,17.18,17.18,0,0,0-5.42,13c0,6.29,3.24,11,10.59,11a18.9,18.9,0,0,0,7.5-1.41Z" transform="translate(0 0)"/><path class="cls-1" d="M152,66.17l3.16-16.66c.72-3.82,1.09-7.93,1.38-10.34h5.63c-.18,1.85-.36,3.7-.61,5.68h.16c1.85-3.63,4.8-6.29,8.46-6.29a12.47,12.47,0,0,1,1.41.08L170.29,45a10.6,10.6,0,0,0-1.25-.07c-4.59,0-7.5,4.67-8.58,10.41l-2,10.87Z" transform="translate(0 0)"/><path class="cls-1" d="M180.56,39.17l2.1,13c.5,2.94.82,4.89,1.05,6.74h.13c.64-1.69,1.33-3.49,2.59-6.45l5.8-13.29h6.83l-9.85,19.9c-3.28,6.58-6.29,11.4-9.92,14.88A17.56,17.56,0,0,1,171,78.58L169.51,73a16.55,16.55,0,0,0,4.75-2.33A16.82,16.82,0,0,0,179,65.32a1.67,1.67,0,0,0,.13-1.27l-5.36-24.88Z" transform="translate(0 0)"/><path class="cls-1" d="M196.27,77.16l5.3-27.94c.61-3.22,1.21-7.31,1.55-10H209l-.61,4.45h.11a11.38,11.38,0,0,1,9.13-5.06c5.85,0,8.53,4.75,8.53,10,0,9.44-6.51,18.2-15.72,18.2A11,11,0,0,1,205,65.62h-.12l-2.18,11.54Zm9.67-16.72a6.52,6.52,0,0,0,4.31,1.38c5,0,9.1-6.66,9.1-12.75,0-2.45-1.08-5.22-4.25-5.22s-6.83,3.69-8,10Z" transform="translate(0 0)"/><path class="cls-1" d="M242.63,31.75l-1.4,7.42h6.07l-1,5h-6.08l-2.11,10.93a20.3,20.3,0,0,0-.49,3.82,2.14,2.14,0,0,0,2.42,2.42,12.66,12.66,0,0,0,2.18-.15l-.61,5.06a13.64,13.64,0,0,1-4.19.55c-4.47,0-6.43-2.45-6.43-5.55a25,25,0,0,1,.58-5l2.33-12H230.3l.94-5h3.65l1.1-5.86Z" transform="translate(0 0)"/><path class="cls-1" d="M264.92,66.17c0-1.59.23-3.76.47-6.07h-.13c-2.67,5-6.25,6.68-9.69,6.68-4.82,0-8-3.78-8-9.18,0-9.24,6.44-19,19-19a29.35,29.35,0,0,1,8.19,1.21L272,53.87a63.3,63.3,0,0,0-1.11,12.3Zm2.62-22.32a9.76,9.76,0,0,0-2.64-.3c-6,0-10.58,6.73-10.6,12.86,0,2.82,1.06,5.14,3.87,5.14,3,0,6.7-3.75,8-10.61Z" transform="translate(0 0)"/><path class="cls-1" d="M277.26,66.17l3.51-18.62c.64-3.24,1-6,1.38-8.38h5.74L287.3,44h.11a11.57,11.57,0,0,1,9.69-5.46C301,38.56,304,40.88,304,46a30.1,30.1,0,0,1-.47,4.45l-3,15.72h-6.46L297,50.94a19.85,19.85,0,0,0,.33-3.22c0-2.26-.83-3.89-3.38-3.89-2.92,0-6.68,3.56-7.85,9.84l-2.34,12.5Z" transform="translate(0 0)"/><path class="cls-1" d="M307.76,66.17l5.15-27h6.45l-5.14,27Zm6.16-34.35a3.84,3.84,0,0,1,3.88-3.89,3.28,3.28,0,0,1,3.44,3.46,3.81,3.81,0,0,1-4,3.86A3.21,3.21,0,0,1,313.92,31.82Z" transform="translate(0 0)"/><path class="cls-1" d="M340.89,65.23a18.55,18.55,0,0,1-7.75,1.53c-6.78,0-10.92-4.37-10.92-10.8a17,17,0,0,1,17.14-17.38,14.13,14.13,0,0,1,5.54,1.05l-1.67,5a9.73,9.73,0,0,0-4.07-.83c-6.26,0-10.19,5.76-10.19,11.4,0,4,2.33,6.32,5.94,6.32a13.64,13.64,0,0,0,5.74-1.29Z" transform="translate(0 0)"/><path class="cls-1" d="M362.49,66.17c0-1.59.23-3.76.46-6.07h-.13c-2.67,5-6.25,6.68-9.69,6.68-4.81,0-8-3.78-8-9.18,0-9.24,6.44-19,19-19a29.35,29.35,0,0,1,8.19,1.21l-2.8,14.1a63.3,63.3,0,0,0-1.11,12.3Zm2.61-22.32a9.7,9.7,0,0,0-2.64-.3c-6,0-10.58,6.73-10.6,12.86,0,2.82,1.06,5.14,3.87,5.14,3,0,6.7-3.75,8-10.61Z" transform="translate(0 0)"/><path class="cls-2" d="M71.11,86.34H34a6.12,6.12,0,0,1-1.93-.25,4.64,4.64,0,0,1-2.46-5.8L39.7,51,49.78,21.78c.74-2.56,2.16-4.81,4.81-4.81H91.75c2.32,1.17,4.57,5.32,4.15,6.74l-10,29-10,29C74.62,85,73.29,86.48,71.11,86.34Z" transform="translate(0 0)"/><path class="cls-2" d="M73.6,9.05c.89-.8,8.73-.74,9.54.14l3.77,1.13c1.16.58,3.71,4.33,3.5,5L90.63,36c.81.89-4.62,17.09-5.13,17.56-.65,1.64-11,11.27-12.11,11.2-.88.81-10.19.75-11-.14l-1.72-.42-12-2.94a7.18,7.18,0,0,1-1.23-.42c-1.11-.47-2.64-2.87-2.25-4l.53-19.56c-.81-.89.84-7.08,2-8.53L55.65,16.1c.36-1.28,2.84-3.72,4.17-3.72Z" transform="translate(0 0)"/><path class="cls-2" d="M69.4,42.93,51.67,23.52c-1.62-1.77-2.08-3.23.28-6.13l22-16.25A4.33,4.33,0,0,1,80,1.41L95.21,19.34c1.62,1.77.76,5.2-.27,6.13L75.54,43.2A4.35,4.35,0,0,1,69.4,42.93Z" transform="translate(0 0)"/><path class="cls-3" d="M1,53.66c-2.73-4,.74-4.59,6.4-4.59h32.5c4.24,0,7.29,1.51,10.4,4.21l.11.1a14.5,14.5,0,0,1,1.06,1l21.12,26.1c1.12,1.28,1.58,1.78,2,2.19.66.7,1.43-1.17,1.42-1.12s0,.09,0,.14a14.26,14.26,0,0,1-1.82,3.55c-1.34,1.34-1.45,1.22-5.28,1.22H36c-6.62,0-9-1.59-11.41-4.49" transform="translate(0 0)"/><path class="cls-1" d="M245,91a2.85,2.85,0,0,0,1,.17c.91,0,1.47-.5,1.75-2L249,82.58h1.11l-1.26,6.67c-.41,2.15-1.3,2.91-2.88,2.91a3.27,3.27,0,0,1-1.22-.21Z" transform="translate(0 0)"/><path class="cls-1" d="M256.13,87.74c0,2-1.29,4.42-3.51,4.42a2.36,2.36,0,0,1-2.34-2.64c0-2.11,1.38-4.41,3.53-4.41A2.34,2.34,0,0,1,256.13,87.74Zm-4.7,1.72c0,1,.44,1.8,1.35,1.8,1.32,0,2.21-2.1,2.21-3.54,0-.76-.3-1.72-1.32-1.72C252.31,86,251.42,88,251.43,89.46Z" transform="translate(0 0)"/><path class="cls-1" d="M263,85.25l-.89,4.69c-.15.82-.24,1.52-.3,2.08h-1L261,90.8h0a2.76,2.76,0,0,1-2.22,1.36c-.85,0-1.59-.49-1.59-1.79a6,6,0,0,1,.12-1.12l.77-4h1.11l-.75,3.92a5.45,5.45,0,0,0-.11,1c0,.61.25,1,.93,1s1.75-1,2-2.36l.68-3.6Z" transform="translate(0 0)"/><path class="cls-1" d="M263.63,92l.83-4.42c.17-.89.26-1.76.33-2.35h1c0,.43-.09.87-.16,1.41h0a2.34,2.34,0,0,1,2-1.55l.28,0-.21,1.12-.27,0c-1,0-1.82,1.23-2.08,2.63L264.74,92Z" transform="translate(0 0)"/><path class="cls-1" d="M267.77,92l.88-4.7c.16-.82.26-1.52.33-2.07h1l-.16,1.25h0a2.73,2.73,0,0,1,2.3-1.39,1.52,1.52,0,0,1,1.55,1.72,6.31,6.31,0,0,1-.13,1.1L272.8,92h-1.11l.76-4.06a4.24,4.24,0,0,0,.1-.88c0-.61-.24-1-.92-1s-1.82,1-2.11,2.54L268.88,92Z" transform="translate(0 0)"/><path class="cls-1" d="M279.18,91.64a4.18,4.18,0,0,1-2,.5c-1.69,0-2.37-1.18-2.37-2.62,0-2,1.37-4.41,3.47-4.41a1.64,1.64,0,0,1,1.81,1.67c0,1.74-1.83,2.28-4.14,2.25a3.06,3.06,0,0,0,.11,1.31,1.37,1.37,0,0,0,1.36.9A3.31,3.31,0,0,0,279,90.8ZM278.08,86c-.95,0-1.73,1-2,2.16,1.6,0,2.94-.27,2.94-1.33A.8.8,0,0,0,278.08,86Z" transform="translate(0 0)"/><path class="cls-1" d="M282.07,85.25l.53,3.68c.11.73.18,1.2.23,1.76h0c.18-.48.37-1,.68-1.68l1.63-3.76h1.18L283.9,90.5a11.65,11.65,0,0,1-2.3,3.55,3.92,3.92,0,0,1-1.7,1l-.32-.95a4.42,4.42,0,0,0,1.17-.65A4.88,4.88,0,0,0,282,91.93a.45.45,0,0,0,0-.32l-1.13-6.36Z" transform="translate(0 0)"/><path class="cls-1" d="M290.48,82.71a9.16,9.16,0,0,1,1.86-.18,2.87,2.87,0,0,1,2,.62,1.82,1.82,0,0,1,.64,1.46A2.58,2.58,0,0,1,293,87v0a2.07,2.07,0,0,1,1.48,2.09,2.78,2.78,0,0,1-1.09,2.19,4.61,4.61,0,0,1-2.88.76,10.07,10.07,0,0,1-1.8-.13ZM290,91.1a4.46,4.46,0,0,0,.84.07c1.38,0,2.52-.69,2.52-2.11,0-1.07-.81-1.62-1.89-1.62h-.78Zm.86-4.51h.73c1.3,0,2.3-.73,2.3-1.89,0-.86-.59-1.29-1.59-1.29a3.46,3.46,0,0,0-.85.08Z" transform="translate(0 0)"/><path class="cls-1" d="M300,91.64a4.18,4.18,0,0,1-2,.5c-1.69,0-2.37-1.18-2.37-2.62,0-2,1.37-4.41,3.47-4.41a1.64,1.64,0,0,1,1.81,1.67c0,1.74-1.84,2.28-4.14,2.25a3.06,3.06,0,0,0,.11,1.31,1.36,1.36,0,0,0,1.36.9,3.34,3.34,0,0,0,1.64-.44ZM298.93,86c-.95,0-1.73,1-2,2.16,1.6,0,2.94-.27,2.94-1.33A.8.8,0,0,0,298.93,86Z" transform="translate(0 0)"/><path class="cls-1" d="M302.91,85.25l.54,3.68c.11.73.18,1.2.23,1.76h0c.17-.48.37-1,.68-1.68L306,85.25h1.17l-2.45,5.25a11.65,11.65,0,0,1-2.3,3.55,4,4,0,0,1-1.7,1l-.32-.95a4.58,4.58,0,0,0,1.17-.65,4.88,4.88,0,0,0,1.25-1.54.51.51,0,0,0,0-.32l-1.14-6.36Z" transform="translate(0 0)"/><path class="cls-1" d="M313,87.74c0,2-1.29,4.42-3.5,4.42a2.36,2.36,0,0,1-2.34-2.64c0-2.11,1.37-4.41,3.52-4.41A2.33,2.33,0,0,1,313,87.74Zm-4.7,1.72c0,1,.44,1.8,1.35,1.8,1.33,0,2.21-2.1,2.21-3.54,0-.76-.29-1.72-1.32-1.72C309.14,86,308.26,88,308.26,89.46Z" transform="translate(0 0)"/><path class="cls-1" d="M313.66,92l.88-4.7c.17-.82.26-1.52.33-2.07h1l-.16,1.25h0a2.74,2.74,0,0,1,2.3-1.39,1.52,1.52,0,0,1,1.55,1.72,6.26,6.26,0,0,1-.12,1.1L318.69,92h-1.11l.77-4.06a5,5,0,0,0,.09-.88c0-.61-.23-1-.92-1s-1.82,1-2.11,2.54L314.77,92Z" transform="translate(0 0)"/><path class="cls-1" d="M327.29,82.16l-1.46,7.64a20.51,20.51,0,0,0-.29,2.22h-1l.15-1.26h0a2.61,2.61,0,0,1-2.2,1.4c-1.17,0-1.82-1-1.82-2.33,0-2.38,1.61-4.72,3.89-4.72a2.39,2.39,0,0,1,1.05.23l.6-3.18Zm-1.9,4.14a1.5,1.5,0,0,0-1-.3c-1.53,0-2.64,2-2.64,3.66,0,.81.25,1.57,1.12,1.57s1.72-.9,2-2.37Z" transform="translate(0 0)"/><path class="cls-1" d="M332.79,83.57h-2.44l.19-1h6l-.19,1H333.9L332.3,92h-1.11Z" transform="translate(0 0)"/><path class="cls-1" d="M335.67,92l1.87-9.86h1.12l-.81,4.21h0a2.64,2.64,0,0,1,2.2-1.26,1.51,1.51,0,0,1,1.53,1.68,6.5,6.5,0,0,1-.12,1.14L340.7,92h-1.11l.77-4.07a4.77,4.77,0,0,0,.09-.92c0-.56-.26-1-.91-1-.83,0-1.83,1-2.1,2.44L336.78,92Z" transform="translate(0 0)"/><path class="cls-1" d="M347.09,91.64a4.25,4.25,0,0,1-2,.5c-1.68,0-2.37-1.18-2.37-2.62,0-2,1.37-4.41,3.48-4.41a1.63,1.63,0,0,1,1.8,1.67c0,1.74-1.83,2.28-4.14,2.25a3.23,3.23,0,0,0,.11,1.31,1.38,1.38,0,0,0,1.37.9,3.27,3.27,0,0,0,1.63-.44ZM346,86c-1,0-1.73,1-2,2.16,1.6,0,2.95-.27,2.95-1.33A.8.8,0,0,0,346,86Z" transform="translate(0 0)"/><path class="cls-1" d="M352.62,82.71a9.13,9.13,0,0,1,1.85-.18,2.9,2.9,0,0,1,2,.62,1.82,1.82,0,0,1,.64,1.46,2.58,2.58,0,0,1-2,2.39v0a2.08,2.08,0,0,1,1.48,2.09,2.75,2.75,0,0,1-1.1,2.19,4.56,4.56,0,0,1-2.87.76,10,10,0,0,1-1.8-.13Zm-.5,8.39a4.39,4.39,0,0,0,.84.07c1.38,0,2.52-.69,2.52-2.11,0-1.07-.81-1.62-1.89-1.62h-.78Zm.86-4.51h.73c1.29,0,2.3-.73,2.3-1.89,0-.86-.6-1.29-1.59-1.29a3.46,3.46,0,0,0-.85.08Z" transform="translate(0 0)"/><path class="cls-1" d="M357.57,92l1.29-6.77H360L358.68,92Zm1.51-8.61a.76.76,0,0,1,.73-.77.64.64,0,0,1,.65.71.75.75,0,0,1-.76.76A.61.61,0,0,1,359.08,83.41Z" transform="translate(0 0)"/><path class="cls-1" d="M363.52,83.44l-.35,1.81h1.52l-.18.87H363l-.66,3.46a5.62,5.62,0,0,0-.12,1c0,.39.18.62.59.62a1.83,1.83,0,0,0,.5,0l-.06.87a2.62,2.62,0,0,1-.84.12,1.19,1.19,0,0,1-1.34-1.25,6,6,0,0,1,.14-1.21l.69-3.57H361l.16-.87h.93l.29-1.51Z" transform="translate(0 0)"/><path class="cls-1" d="M364.68,90.88a2.79,2.79,0,0,0,1.33.39,1.14,1.14,0,0,0,1.23-1.12c0-.55-.25-.89-.86-1.27a2,2,0,0,1-1.12-1.7,2.16,2.16,0,0,1,2.35-2.07,2.57,2.57,0,0,1,1.3.31l-.31.85a2.16,2.16,0,0,0-1.05-.28,1.05,1.05,0,0,0-1.17,1c0,.51.31.81.83,1.14a2.18,2.18,0,0,1,1.17,1.78,2.22,2.22,0,0,1-2.47,2.21,2.78,2.78,0,0,1-1.55-.43Z" transform="translate(0 0)"/></g></g></svg>